# File created by Blade
# Date/Time:  Tue Jan 27 17:09:01 2015
#---------------------------------------------------------
:version 1.10
:name HOM
:units
  mass 1.0
  length 1.000000
  angle deg
:documentation
     Acclaim Skeleton File
:root
   axis xyz
   order TX TY TZ RX RY RZ
   position 0.000000 0.000000 0.000000
   orientation 0 0 0
:bonedata
   begin
      id 1
      name Spine_dum
      direction 0.000000 1.000000 0.000000
      length 7.539951
      axis 0.0 0.0 0.0 xyz
   end
   begin
      id 2
      name LeftUpLeg_dum
      direction 1.000000 0.000000 0.000000
      length 3.345476
      axis 0.0 0.0 0.0 xyz
   end
   begin
      id 3
      name RightUpLeg_dum
      direction -1.000000 0.000000 0.000000
      length 3.345476
      axis 0.0 0.0 0.0 xyz
   end
   begin
      id 4
      name Spine
      direction 0.000000 1.000000 0.000000
      length 0.000000
      axis 0.0 0.0 0.0 xyz
      dof rx ry rz
   end
   begin
      id 5
      name Spine_dum1
      direction 0.000000 1.000000 0.000000
      length 15.093809
      axis 0.0 0.0 0.0 xyz
   end
   begin
      id 6
      name Spine_dum2
      direction 0.000000 1.000000 0.000000
      length 9.738928
      axis 0.0 0.0 0.0 xyz
   end
   begin
      id 7
      name Spine_dum3
      direction 0.000000 1.000000 0.000000
      length 9.738928
      axis 0.0 0.0 0.0 xyz
   end
   begin
      id 8
      name Head
      direction 0.000000 1.000000 0.000000
      length 4.527550
      axis 0.0 0.0 0.0 xyz
      dof rx ry rz
   end
   begin
      id 9
      name LeftShoulder
      direction 1.000000 0.000000 0.000000
      length 7.084015
      axis 0.0 0.0 -90.0 xyz
      dof rx ry rz
   end
   begin
      id 10
      name LeftArm
      direction 1.000000 0.000000 0.000000
      length 10.259319
      axis 0.0 0.0 -90.0 xyz
      dof rx ry rz
   end
   begin
      id 11
      name LeftForeArm
      direction 1.000000 0.000000 0.000000
      length 9.896984
      axis 0.0 0.0 -90.0 xyz
      dof ry rz rx
   end
   begin
      id 12
      name LeftHand
      direction 0.000000 0.000000 0.000000
      length 0.000000
      axis 0.0 0.0 -90.0 xyz
      dof rx ry rz
   end
   begin
      id 13
      name LeftHand_dum1
      direction 0.000000 0.000000 0.000000
      length 0.000000
      axis 0.0 0.0 -90.0 xyz
   end
   begin
      id 14
      name LeftHand_dum2
      direction 1.000000 0.000000 0.000000
      length 3.937000
      axis 0.0 0.0 -90.0 xyz
   end
   begin
      id 15
      name LeftHandThumb1
      direction 0.000000 0.000000 1.000000
      length 3.937000
      axis 0.0 0.0 -90.0 xyz
      dof rx rz ry
   end
   begin
      id 16
      name RightShoulder
      direction -1.000000 0.000000 0.000000
      length 7.084015
      axis 0.0 0.0 90.0 xyz
      dof rx ry rz
   end
   begin
      id 17
      name RightArm
      direction -1.000000 0.000000 0.000000
      length 10.259319
      axis 0.0 0.0 90.0 xyz
      dof rx ry rz
   end
   begin
      id 18
      name RightForeArm
      direction -1.000000 0.000000 0.000000
      length 9.896984
      axis 0.0 0.0 90.0 xyz
      dof ry rz rx
   end
   begin
      id 19
      name RightHand
      direction 0.000000 0.000000 0.000000
      length 0.000000
      axis 0.0 0.0 90.0 xyz
      dof rx ry rz
   end
   begin
      id 20
      name RightHand_dum1
      direction 0.000000 0.000000 0.000000
      length 0.000000
      axis 0.0 0.0 90.0 xyz
   end
   begin
      id 21
      name RightHand_dum2
      direction -1.000000 0.000000 0.000000
      length 3.937000
      axis 0.0 0.0 90.0 xyz
   end
   begin
      id 22
      name RightHandThumb1
      direction 0.000000 0.000000 1.000000
      length 3.937000
      axis 0.0 0.0 90.0 xyz
      dof rx rz ry
   end
   begin
      id 23
      name LeftUpLeg
      direction 0.000000 -1.000000 0.000000
      length 19.114733
      axis 0.0 0.0 0.0 xyz
      dof rx ry rz
   end
   begin
      id 24
      name LeftLeg
      direction 0.000000 -1.000000 0.000000
      length 16.045604
      axis 0.0 0.0 0.0 xyz
      dof rx ry rz
   end
   begin
      id 25
      name LeftFoot
      direction 0.000000 -0.258819 0.965926
      length 5.543155
      axis 15.0 0.0 0.0 xyz
      dof rx ry rz
   end
   begin
      id 26
      name LeftToeBase
      direction 0.000000 0.000000 1.000000
      length 2.952750
      axis 0.0 0.0 0.0 xyz
      dof rx ry rz
   end
   begin
      id 27
      name RightUpLeg
      direction 0.000000 -1.000000 0.000000
      length 19.114733
      axis 0.0 0.0 0.0 xyz
      dof rx ry rz
   end
   begin
      id 28
      name RightLeg
      direction 0.000000 -1.000000 0.000000
      length 16.045604
      axis 0.0 0.0 0.0 xyz
      dof rx ry rz
   end
   begin
      id 29
      name RightFoot
      direction 0.000000 -0.258819 0.965926
      length 5.543155
      axis 15.0 0.0 0.0 xyz
      dof rx ry rz
   end
   begin
      id 30
      name RightToeBase
      direction 0.000000 0.000000 1.000000
      length 2.952750
      axis 0.0 0.0 0.0 xyz
      dof rx ry rz
   end
:hierarchy
   begin
      root Spine_dum LeftUpLeg_dum RightUpLeg_dum
      Spine_dum Spine
      LeftUpLeg_dum LeftUpLeg
      RightUpLeg_dum RightUpLeg
      Spine Spine_dum1 Spine_dum2 Spine_dum3
      Spine_dum1 Head
      Spine_dum2 LeftShoulder
      Spine_dum3 RightShoulder
      LeftShoulder LeftArm
      LeftArm LeftForeArm
      LeftForeArm LeftHand
      LeftHand LeftHand_dum1 LeftHand_dum2
      LeftHand_dum1 LeftHandThumb1
      RightShoulder RightArm
      RightArm RightForeArm
      RightForeArm RightHand
      RightHand RightHand_dum1 RightHand_dum2
      RightHand_dum1 RightHandThumb1
      LeftUpLeg LeftLeg
      LeftLeg LeftFoot
      LeftFoot LeftToeBase
      RightUpLeg RightLeg
      RightLeg RightFoot
      RightFoot RightToeBase
   end

# File created by Blade
# Date/Time:  Tue Jan 27 17:08:52 2015
# Frame Rate: 120.000 fps
#------------------------------------------------------
:FULLY-SPECIFIED
:DEGREES
3239
root -0.040052 38.693566 -0.718923 47.126118 -30.779422 -54.464696
Spine -0.833263 19.272442 23.619053
Head -6.237386 -32.938036 21.386828
LeftShoulder -8.628812 -2.835135 10.133917
LeftArm -27.246941 -41.345178 -31.679987
LeftForeArm 7.859554 -0.000000 133.421369
LeftHand -25.480329 -0.000000 31.408563
LeftHandThumb1 -26.253704 0.000000 33.147579
RightShoulder -1.876701 -21.525953 0.421597
RightArm 32.458041 -29.676258 42.884628
RightForeArm 152.196693 -0.000000 77.414112
RightHand 4.797217 -0.000000 -0.046361
RightHandThumb1 -24.326973 -0.000000 -32.862282
LeftUpLeg -22.141878 23.255328 36.447516
LeftLeg 25.951401 -0.000000 -0.000000
LeftFoot -24.758895 13.955145 -15.925717
LeftToeBase 14.463958 -0.000000 -0.000000
RightUpLeg -59.319054 -37.913571 -3.087186
RightLeg 118.893109 -0.000000 -0.000000
RightFoot -0.390603 0.196847 11.555410
RightToeBase 5.069494 -0.000000 -0.000000
3240
root -0.049744 38.700282 -0.731902 47.177861 -30.730449 -54.569343
Spine -0.812754 19.307530 23.670477
Head -6.279887 -32.883678 21.369551
LeftShoulder -8.624799 -2.885162 10.080595
LeftArm -27.295247 -41.445538 -31.476244
LeftForeArm 7.779771 0.000000 133.467853
LeftHand -25.483405 -0.000000 31.330028
LeftHandThumb1 -26.253704 0.000000 33.147579
RightShoulder -1.835329 -21.510265 0.350260
RightArm 32.479659 -29.773706 42.846027
RightForeArm 152.205347 0.000000 77.407509
RightHand 4.782135 -0.000000 -0.111498
RightHandThumb1 -24.326973 -0.000000 -32.862282
LeftUpLeg -22.106324 23.293770 36.569300
LeftLeg 25.904661 -0.000000 -0.000000
LeftFoot -24.693633 14.076591 -15.805177
LeftToeBase 14.349098 -0.000000 -0.000000
RightUpLeg -59.512307 -38.051580 -2.962960
RightLeg 118.955246 -0.000000 -0.000000
RightFoot -0.408957 0.232960 11.599996
RightToeBase 5.038563 -0.000000 -0.000000
3241
root -0.060947 38.707749 -0.745081 47.229077 -30.686140 -54.673856
Spine -0.803934 19.347634 23.703564
Head -6.282071 -32.833507 21.380223
LeftShoulder -8.630791 -2.910292 10.040916
LeftArm -27.287656 -41.553455 -31.316026
LeftForeArm 7.688471 -0.000000 133.511610
LeftHand -25.493396 -0.000000 31.220598
LeftHandThumb1 -26.253704 0.000000 33.147579
RightShoulder -1.797359 -21.526841 0.294157
RightArm 32.531979 -29.862717 42.788141
RightForeArm 152.119218 -0.000000 77.395008
RightHand 4.814056 0.000000 -0.079464
RightHandThumb1 -24.326973 -0.000000 -32.862282
LeftUpLeg -22.068037 23.361629 36.679389
LeftLeg 25.839706 -0.000000 -0.000000
LeftFoot -24.606131 14.209083 -15.690893
LeftToeBase 14.206854 -0.000000 -0.000000
RightUpLeg -59.707307 -38.166768 -2.852050
RightLeg 119.019799 -0.000000 -0.000000
RightFoot -0.510522 0.211609 11.689476
RightToeBase 5.259845 -0.000000 -0.000000
3242
root -0.070830 38.714482 -0.758531 47.284617 -30.635818 -54.763528
Spine -0.828159 19.386848 23.723969
Head -6.267740 -32.850832 21.370154
LeftShoulder -8.603630 -2.922148 10.006839
LeftArm -27.330118 -41.663797 -31.112776
LeftForeArm 7.606510 -0.000000 133.551044
LeftHand -25.471481 -0.000000 31.077529
LeftHandThumb1 -26.253704 0.000000 33.147579
RightShoulder -1.750628 -21.564269 0.237481
RightArm 32.583114 -29.922261 42.733889
RightForeArm 152.068445 0.000000 77.383875
RightHand 4.844808 -0.000000 -0.149999
RightHandThumb1 -24.326973 -0.000000 -32.862282
LeftUpLeg -22.058944 23.414996 36.766639
LeftLeg 25.775567 -0.000000 -0.000000
LeftFoot -24.535589 14.488981 -15.473485
LeftToeBase 14.201830 -0.000000 -0.000000
RightUpLeg -59.916836 -38.292917 -2.743881
RightLeg 119.073582 -0.000000 -0.000000
RightFoot -0.610753 0.137528 11.828576
RightToeBase 5.171488 -0.000000 -0.000000
3243
root -0.078866 38.718538 -0.770760 47.328953 -30.601745 -54.840631
Spine -0.824377 19.413428 23.732502
Head -6.298679 -32.765206 21.332025
LeftShoulder -8.628379 -2.915517 9.983584
LeftArm -27.268081 -41.773772 -31.014967
LeftForeArm 7.547393 0.000000 133.577543
LeftHand -25.472305 0.000000 30.934193
LeftHandThumb1 -26.253704 0.000000 33.147579
RightShoulder -1.712374 -21.583130 0.172971
RightArm 32.657138 -29.993505 42.671194
RightForeArm 152.047148 0.000000 77.367862
RightHand 4.829994 0.000000 -0.279102
RightHandThumb1 -24.326973 -0.000000 -32.862282
LeftUpLeg -22.045917 23.430501 36.833532
LeftLeg 25.705292 -0.000000 -0.000000
LeftFoot -24.462571 14.741355 -15.305656
LeftToeBase 14.120133 -0.000000 -0.000000
RightUpLeg -60.103319 -38.401990 -2.702006
RightLeg 119.132439 -0.000000 -0.000000
RightFoot -0.697067 0.104476 11.710681
RightToeBase 4.994281 -0.000000 -0.000000
3244
root -0.087123 38.721544 -0.783699 47.365863 -30.549145 -54.899388
Spine -0.847412 19.421820 23.732854
Head -6.272588 -32.690685 21.331154
LeftShoulder -8.624039 -2.948032 9.984623
LeftArm -27.287265 -41.850153 -30.872488
LeftForeArm 7.459118 -0.000000 133.615617
LeftHand -25.462697 -0.000000 30.806150
LeftHandThumb1 -26.253704 0.000000 33.147579
RightShoulder -1.669045 -21.590185 0.104141
RightArm 32.718322 -30.074175 42.615974
RightForeArm 152.000436 0.000000 77.348870
RightHand 4.776405 0.000000 -0.418437
RightHandThumb1 -24.326973 -0.000000 -32.862282
LeftUpLeg -22.059094 23.361026 36.900671
LeftLeg 25.649234 -0.000000 -0.000000
LeftFoot -24.399326 15.081309 -15.117879
LeftToeBase 14.001331 -0.000000 -0.000000
RightUpLeg -60.293557 -38.514791 -2.647566
RightLeg 119.179343 -0.000000 -0.000000
RightFoot -0.870031 -0.012741 11.758444
RightToeBase 5.128013 -0.000000 -0.000000
3245
root -0.094845 38.723904 -0.799122 47.439918 -30.524645 -54.987121
Spine -0.878749 19.473777 23.723572
Head -6.279727 -32.683214 21.303693
LeftShoulder -8.608289 -3.001885 9.989413
LeftArm -27.329953 -41.914587 -30.695073
LeftForeArm 7.326282 -0.000000 133.634525
LeftHand -25.434247 -0.000000 30.741361
LeftHandThumb1 -26.253704 0.000000 33.147579
RightShoulder -1.637744 -21.591883 0.037677
RightArm 32.803712 -30.169079 42.544540
RightForeArm 151.929172 0.000000 77.327041
RightHand 4.742602 -0.000000 -0.480209
RightHandThumb1 -24.326973 -0.000000 -32.862282
LeftUpLeg -22.061996 23.257314 36.992911
LeftLeg 25.618140 -0.000000 -0.000000
LeftFoot -24.349957 15.437671 -14.972810
LeftToeBase 13.895571 -0.000000 -0.000000
RightUpLeg -60.499535 -38.544576 -2.609091
RightLeg 119.228439 -0.000000 -0.000000
RightFoot -1.051533 -0.065817 11.822059
RightToeBase 5.027906 -0.000000 -0.000000
3246
root -0.105306 38.726999 -0.812412 47.475820 -30.469305 -55.096190
Spine -0.862504 19.488910 23.769380
Head -6.251355 -32.622278 21.303526
LeftShoulder -8.596308 -3.058687 10.005013
LeftArm -27.364861 -41.960414 -30.547424
LeftForeArm 7.252720 -0.000000 133.667103
LeftHand -25.439599 -0.000000 30.686531
LeftHandThumb1 -26.253704 0.000000 33.147579
RightShoulder -1.600087 -21.596474 -0.012010
RightArm 32.843372 -30.225907 42.491384
RightForeArm 151.870942 -0.000000 77.343418
RightHand 4.768126 -0.000000 -0.501834
RightHandThumb1 -24.326973 -0.000000 -32.862282
LeftUpLeg -22.024119 23.086306 37.159637
LeftLeg 25.614662 -0.000000 -0.000000
LeftFoot -24.310669 15.764467 -14.809119
LeftToeBase 13.813628 -0.000000 -0.000000
RightUpLeg -60.626527 -38.581944 -2.583513
RightLeg 119.262683 -0.000000 -0.000000
RightFoot -1.261517 -0.171037 11.779097
RightToeBase 5.137003 -0.000000 -0.000000
3247
root -0.116639 38.730368 -0.824543 47.499548 -30.411621 -55.227863
Spine -0.806414 19.507275 23.861333
Head -6.313720 -32.627048 21.225040
LeftShoulder -8.589561 -3.049964 10.003954
LeftArm -27.325094 -42.071600 -30.471979
LeftForeArm 7.158450 -0.000000 133.685027
LeftHand -25.442356 -0.000000 30.614087
LeftHandThumb1 -26.253704 0.000000 33.147579
RightShoulder -1.569313 -21.572091 -0.090243
RightArm 32.916067 -30.307439 42.416883
RightForeArm 151.814990 0.000000 77.324356
RightHand 4.784180 -0.000000 -0.453060
RightHandThumb1 -24.326973 -0.000000 -32.862282
LeftUpLeg -21.959378 22.932478 37.340072
LeftLeg 25.610377 -0.000000 -0.000000
LeftFoot -24.277017 16.086798 -14.671299
LeftToeBase 13.686329 -0.000000 -0.000000
RightUpLeg -60.704606 -38.591481 -2.578289
RightLeg 119.275511 -0.000000 -0.000000
RightFoot -1.436704 -0.243419 11.853300
RightToeBase 5.167787 -0.000000 -0.000000
3248
root -0.128307 38.734317 -0.837767 47.531749 -30.354805 -55.348994
Spine -0.780675 19.514882 23.920475
Head -6.295054 -32.588908 21.229570
LeftShoulder -8.568934 -3.081139 10.001227
LeftArm -27.363828 -42.128032 -30.296080
LeftForeArm 7.034425 0.000000 133.708618
LeftHand -25.421437 -0.000000 30.589461
LeftHandThumb1 -26.253704 0.000000 33.147579
RightShoulder -1.519984 -21.558788 -0.134266
RightArm 32.962765 -30.366587 42.350485
RightForeArm 151.777948 0.000000 77.327814
RightHand 4.794533 -0.000000 -0.489561
RightHandThumb1 -24.326973 -0.000000 -32.862282
LeftUpLeg -21.907644 22.783192 37.512435
LeftLeg 25.606813 -0.000000 -0.000000
LeftFoot -24.262566 16.408374 -14.566493
LeftToeBase 13.631983 -0.000000 -0.000000
RightUpLeg -60.784014 -38.572138 -2.581805
RightLeg 119.294318 -0.000000 -0.000000
RightFoot -1.554646 -0.247715 11.729966
RightToeBase 4.972667 -0.000000 -0.000000
3249
root -0.139974 38.737930 -0.851917 47.574905 -30.319854 -55.485053
Spine -0.757513 19.556564 23.947934
Head -6.260382 -32.522857 21.291974
LeftShoulder -8.522349 -3.099153 10.042707
LeftArm -27.406355 -42.206308 -30.153241
LeftForeArm 6.974934 -0.000000 133.741613
LeftHand -25.431142 -0.000000 30.511715
LeftHandThumb1 -26.253704 0.000000 33.147579
RightShoulder -1.486003 -21.529244 -0.134038
RightArm 32.982835 -30.421657 42.279772
RightForeArm 151.734041 -0.000000 77.336696
RightHand 4.789552 -0.000000 -0.472591
RightHandThumb1 -24.326973 -0.000000 -32.862282
LeftUpLeg -21.841220 22.701338 37.680472
LeftLeg 25.603188 -0.000000 -0.000000
LeftFoot -24.265663 16.646461 -14.509365
LeftToeBase 13.636440 -0.000000 -0.000000
RightUpLeg -60.859796 -38.491406 -2.604646
RightLeg 119.303741 -0.000000 -0.000000
RightFoot -1.660791 -0.240253 11.681742
RightToeBase 4.793465 -0.000000 -0.000000
3250
root -0.149773 38.741495 -0.868730 47.655452 -30.299425 -55.647073
Spine -0.732390 19.612781 23.984607
Head -6.341860 -32.540519 21.299385
LeftShoulder -8.513418 -3.114294 10.078072
LeftArm -27.401915 -42.283243 -30.033542
LeftForeArm 6.883066 -0.000000 133.753129
LeftHand -25.430027 -0.000000 30.453472
LeftHandThumb1 -26.253704 0.000000 33.147579
RightShoulder -1.477887 -21.526241 -0.135219
RightArm 33.084695 -30.468039 42.172385
RightForeArm 151.742621 0.000000 77.324105
RightHand 4.774722 -0.000000 -0.465980
RightHandThumb1 -24.326973 -0.000000 -32.862282
LeftUpLeg -21.791044 22.719258 37.841395
LeftLeg 25.609081 -0.000000 -0.000000
LeftFoot -24.246102 16.792591 -14.436176
LeftToeBase 13.575738 -0.000000 -0.000000
RightUpLeg -60.962975 -38.365093 -2.608625
RightLeg 119.292999 -0.000000 -0.000000
RightFoot -1.794628 -0.209832 11.820842
RightToeBase 5.037710 -0.000000 -0.000000
